<?xml version="1.0" encoding="UTF-8"?>
<svg width="873px" height="298px" viewBox="0 0 873 298" version="1.1" xmlns="http://www.w3.org/2000/svg" xmlns:xlink="http://www.w3.org/1999/xlink">
    <title>形状结合</title>
    <defs>
        <linearGradient x1="100%" y1="50%" x2="-2.22044605e-14%" y2="50%" id="linearGradient-1">
            <stop stop-color="#FF4E73" offset="0%"></stop>
            <stop stop-color="#FF8745" offset="100%"></stop>
        </linearGradient>
    </defs>
    <g id="页面-1" stroke="none" stroke-width="1" fill="none" fill-rule="evenodd">
        <path d="M100.2,0 C155.428475,-1.01453063e-14 200.2,44.771525 200.2,100 C200.2,155.228475 155.428475,200 100.2,200 L40.2,200 L40.2,280.260796 C40.2,283.5812 38.1489289,286.556456 35.045693,287.737562 L11.045693,296.872077 C6.91638915,298.44371 2.29486678,296.370308 0.723233912,292.241004 C0.377310719,291.332127 0.2,290.367793 0.2,289.395311 L0.2,100 C0.2,44.771525 44.971525,1.01453063e-14 100.2,0 Z M615.491699,220.133789 L628.746582,250.998047 L640.805176,224.392578 L652.86377,224.392578 L628.459473,274.493164 L615.491699,244.490234 L602.380371,274.493164 L578.023926,224.392578 L590.130371,224.392578 L602.33252,250.998047 L615.491699,220.133789 Z M432.675762,195.681641 C438.44985,195.681641 443.841126,196.861979 448.84959,199.222656 C453.634746,201.583333 458.34015,205.411458 462.965801,210.707031 L455.022441,218.31543 C448.961243,210.244466 441.576152,206.208984 432.867168,206.208984 C425.051413,206.208984 418.495749,208.904622 413.200176,214.295898 C407.904603,219.591471 405.256816,226.226888 405.256816,234.202148 C405.256816,242.432617 408.207663,249.211589 414.109355,254.539062 C419.628236,259.483724 425.609681,261.956055 432.053691,261.956055 C437.540671,261.956055 442.469382,260.105794 446.839824,256.405273 C451.210267,252.672852 453.650697,248.206706 454.161113,243.006836 L435.738262,243.006836 L435.738262,232.527344 L466.267559,232.527344 L466.267559,234.967773 C466.267559,240.518555 465.613587,245.431315 464.305645,249.706055 C463.029603,253.661784 460.876283,257.362305 457.845684,260.807617 C450.98696,268.527669 442.262025,272.387695 431.670879,272.387695 C421.334941,272.387695 412.482402,268.655273 405.113262,261.19043 C397.744121,253.693685 394.059551,244.697591 394.059551,234.202148 C394.059551,223.483398 397.807923,214.391602 405.304668,206.926758 C412.801413,199.430013 421.925111,195.681641 432.675762,195.681641 Z M767.730488,223.100586 C774.684915,223.100586 780.586608,225.477214 785.435566,230.230469 C790.220723,234.983724 792.613301,240.821615 792.613301,247.744141 C792.613301,254.730469 790.204772,260.58431 785.387715,265.305664 C780.538757,269.995117 774.589212,272.339844 767.539082,272.339844 C760.552754,272.339844 754.698913,269.947266 749.977559,265.162109 C745.256204,260.440755 742.895527,254.507161 742.895527,247.361328 C742.895527,240.630208 745.304056,234.903971 750.121113,230.182617 C754.938171,225.461263 760.807962,223.100586 767.730488,223.100586 Z M717.239434,223.100586 C721.833184,223.100586 726.171725,224.201172 730.255059,226.402344 L730.255059,240.709961 C727.798678,237.711263 725.597507,235.653646 723.651543,234.537109 C721.73748,233.388672 719.488457,232.814453 716.904473,232.814453 C712.85304,232.814453 709.48748,234.234049 706.807793,237.073242 C704.128105,239.912435 702.788262,243.469401 702.788262,247.744141 C702.788262,252.114583 704.080254,255.703451 706.664238,258.510742 C709.280124,261.318034 712.613783,262.72168 716.665215,262.72168 C719.249199,262.72168 721.530124,262.163411 723.507988,261.046875 C725.422051,259.96224 727.671074,257.856771 730.255059,254.730469 L730.255059,268.942383 C725.884616,271.207357 721.514173,272.339844 717.14373,272.339844 C709.934095,272.339844 703.904798,270.011068 699.05584,265.353516 C694.206882,260.664062 691.782402,254.842122 691.782402,247.887695 C691.782402,240.933268 694.238783,235.063477 699.151543,230.27832 C704.064303,225.493164 710.0936,223.100586 717.239434,223.100586 Z M667.657559,259.037109 C669.475918,259.037109 671.039069,259.691081 672.347012,260.999023 C673.654954,262.306966 674.308926,263.870117 674.308926,265.688477 C674.308926,267.538737 673.654954,269.117839 672.347012,270.425781 C671.07097,271.701823 669.507819,272.339844 667.657559,272.339844 C665.775397,272.339844 664.196296,271.701823 662.920254,270.425781 C661.644212,269.14974 661.006191,267.554688 661.006191,265.640625 C661.006191,263.854167 661.660163,262.306966 662.968105,260.999023 C664.276048,259.691081 665.839199,259.037109 667.657559,259.037109 Z M545.477207,223.100586 C552.431634,223.100586 558.333327,225.477214 563.182285,230.230469 C567.967441,234.983724 570.36002,240.821615 570.36002,247.744141 C570.36002,254.730469 567.951491,260.58431 563.134434,265.305664 C558.285475,269.995117 552.335931,272.339844 545.285801,272.339844 C538.299473,272.339844 532.445632,269.947266 527.724277,265.162109 C523.002923,260.440755 520.642246,254.507161 520.642246,247.361328 C520.642246,240.630208 523.050775,234.903971 527.867832,230.182617 C532.684889,225.461263 538.554681,223.100586 545.477207,223.100586 Z M293.93877,197.117188 C300.127572,197.117188 304.801074,197.547852 307.959277,198.40918 C311.149382,199.270508 313.956673,200.897461 316.381152,203.290039 C320.623991,207.437174 322.74541,212.668945 322.74541,218.985352 C322.74541,225.748372 320.480436,231.107747 315.950488,235.063477 C311.42054,239.019206 305.311491,240.99707 297.62334,240.99707 L292.455371,240.99707 L292.455371,271 L281.305957,271 L281.305957,197.117188 L293.93877,197.117188 Z M856.598496,223.100586 C867.093939,223.100586 872.34166,229.464844 872.34166,242.193359 L872.34166,271 L861.527207,271 L861.527207,245.112305 C861.527207,240.646159 860.984889,237.487956 859.900254,235.637695 C858.783717,233.755534 856.949408,232.814453 854.397324,232.814453 C851.430527,232.814453 849.269232,233.93099 847.913437,236.164062 C846.557643,238.397135 845.879746,241.986003 845.879746,246.930664 L845.879746,271 L835.065293,271 L835.065293,245.255859 C835.065293,236.961589 832.672715,232.814453 827.887559,232.814453 C824.85696,232.814453 822.647812,233.94694 821.260117,236.211914 C819.872422,238.476888 819.178574,242.049805 819.178574,246.930664 L819.178574,271 L808.411973,271 L808.411973,224.392578 L819.178574,224.392578 L819.178574,228.699219 C821.252142,226.529948 823.02265,225.0625 824.490098,224.296875 C826.053249,223.499349 828.015163,223.100586 830.37584,223.100586 C835.639512,223.100586 839.802598,225.397461 842.865098,229.991211 C846.246608,225.397461 850.824408,223.100586 856.598496,223.100586 Z M347.109512,224.392578 L357.493301,237.982422 L368.068496,224.392578 L381.275527,224.392578 L364.048965,245.782227 L384.003066,271 L371.178848,271 L357.493301,253.582031 L343.472793,271 L330.313613,271 L351.03334,245.782227 L334.285293,224.392578 L347.109512,224.392578 Z M504.221504,223.100586 C507.060697,223.100586 510.027493,224.025716 513.121895,225.875977 L508.193184,235.733398 C506.151517,234.265951 504.157702,233.532227 502.211738,233.532227 C496.341947,233.532227 493.407051,237.966471 493.407051,246.834961 L493.407051,271 L482.640449,271 L482.640449,224.392578 L493.407051,224.392578 L493.407051,228.555664 C495.384915,226.482096 497.139473,225.0625 498.670723,224.296875 C500.233874,223.499349 502.084134,223.100586 504.221504,223.100586 Z M767.730488,232.814453 C763.615254,232.814453 760.281595,234.186198 757.729512,236.929688 C755.177428,239.673177 753.901387,243.214193 753.901387,247.552734 C753.901387,252.210286 755.145527,255.894857 757.633809,258.606445 C760.185892,261.349935 763.551452,262.72168 767.730488,262.72168 C771.941426,262.72168 775.306986,261.365885 777.827168,258.654297 C780.34735,255.942708 781.607441,252.32194 781.607441,247.791992 C781.607441,243.262044 780.34735,239.641276 777.827168,236.929688 C775.275085,234.186198 771.909525,232.814453 767.730488,232.814453 Z M545.477207,232.814453 C541.361973,232.814453 538.028314,234.186198 535.47623,236.929688 C532.924147,239.673177 531.648105,243.214193 531.648105,247.552734 C531.648105,252.210286 532.892246,255.894857 535.380527,258.606445 C537.932611,261.349935 541.298171,262.72168 545.477207,262.72168 C549.688145,262.72168 553.053704,261.365885 555.573887,258.654297 C558.094069,255.942708 559.35416,252.32194 559.35416,247.791992 C559.35416,243.262044 558.094069,239.641276 555.573887,236.929688 C553.021803,234.186198 549.656243,232.814453 545.477207,232.814453 Z M296.139941,207.405273 L292.455371,207.405273 L292.455371,230.661133 L296.618457,230.661133 C306.858691,230.661133 311.978809,226.721354 311.978809,218.841797 C311.978809,211.217448 306.699186,207.405273 296.139941,207.405273 Z M862.4,46.16 L862.4,65.36 L759.84,89.36 L759.84,94.8 L866.24,94.8 L866.24,110.48 L817.76,110.48 L864.64,162.64 L836.8,162.64 L789.92,110.48 L759.84,110.48 L759.84,144.08 C759.84,145.466667 760.32,146.64 761.28,147.6 C762.24,148.56 763.413333,149.04 764.8,149.04 L782.24,149.04 L776.96,162.64 L755.2,162.64 C752.746667,162.64 750.48,162.186667 748.4,161.28 C746.32,160.373333 744.506667,159.146667 742.96,157.6 C741.413333,156.053333 740.186667,154.24 739.28,152.16 C738.373333,150.08 737.92,147.813333 737.92,145.36 L737.92,110.48 L725.76,110.48 L725.76,94.8 L737.92,94.8 L737.92,47.76 L759.84,47.76 L759.84,70.32 L862.4,46.16 Z M496.32,46.32 L496.32,51.28 L554.56,51.28 L554.56,63.12 L496.32,63.12 L496.32,67.28 L550.72,67.28 L550.72,79.12 L496.32,79.12 L496.32,83.12 L557.44,83.12 L557.44,94.96 L469.92,94.96 L459.52,102.48 L481.28,102.48 L486.56,98.96 L515.68,98.96 L478.72,123.28 L532.32,123.28 L528.16,114.16 L546.88,114.16 L557.12,137.36 L502.56,137.36 L502.56,144.88 C502.56,147.333333 502.106667,149.6 501.2,151.68 C500.293333,153.76 499.04,155.6 497.44,157.2 C495.84,158.8 493.973333,160.053333 491.84,160.96 C489.706667,161.866667 487.413333,162.32 484.96,162.32 L463.36,162.32 L469.6,150.32 L474.4,150.32 C475.786667,150.32 476.96,149.84 477.92,148.88 C478.88,147.92 479.36,146.746667 479.36,145.36 L479.36,137.36 L428.48,137.36 L460.64,116.24 L418.56,116.24 L445.28,94.96 L416.96,94.96 L416.96,83.12 L474.08,83.12 L474.08,79.12 L423.84,79.12 L423.84,67.28 L474.08,67.28 L474.08,63.12 L420,63.12 L420,51.28 L474.08,51.28 L474.08,46.32 L496.32,46.32 Z M458.72,142.48 L444.48,162.16 L419.84,162.16 L433.76,142.48 L458.72,142.48 Z M540.64,142.48 L554.72,162.16 L528.96,162.16 L515.68,142.48 L540.64,142.48 Z M340.96,46.96 L338.56,53.04 L396.64,53.04 L389.76,72.4 L402.72,72.4 L402.72,87.12 C402.72,89.2533333 402.32,91.2266667 401.52,93.04 C400.72,94.8533333 399.653333,96.4266667 398.32,97.76 C396.986667,99.0933333 395.386667,100.16 393.52,100.96 C391.653333,101.76 389.706667,102.16 387.68,102.16 L365.12,102.16 L368,111.76 L380.64,111.76 L383.04,106.96 L403.04,106.96 L394.4,123.76 L387.36,123.76 L401.92,159.12 L382.08,159.12 L369.6,129.04 L369.6,144.88 C369.6,146.8 369.2,148.773333 368.4,150.8 C367.6,152.826667 366.453333,154.666667 364.96,156.32 C363.466667,157.973333 361.653333,159.333333 359.52,160.4 C357.386667,161.466667 354.933333,162 352.16,162 L333.6,162 L337.44,151.6 L342.08,151.6 C343.466667,151.493333 344.613333,150.933333 345.52,149.92 C346.426667,148.906667 346.88,147.706667 346.88,146.32 L346.88,144.72 L300.16,160.72 L300.16,148.88 L346.88,132.88 L346.88,127.6 L304.32,142.16 L304.32,130.16 L346.88,115.76 L346.88,114 L346.08,111.28 L304.32,124.4 L304.32,112.56 L337.44,102.16 L305.76,102.16 L305.76,72.4 L367.68,72.4 L369.76,66.32 L311.36,66.32 L318.72,46.96 L340.96,46.96 Z M305.28,46.64 L292.96,74.64 L297.28,74.64 L297.28,162 L277.76,162 L277.76,91.76 L262.4,91.76 L282.4,46.64 L305.28,46.64 Z M652.48,46.96 L652.48,64.24 L710.24,64.24 L710.24,79.92 L652.48,79.92 L652.48,103.92 L705.12,103.92 L705.12,119.6 L652.48,119.6 L652.48,146 L708.64,146 L708.64,161.68 L574.08,161.68 L574.08,146 L630.24,146 L630.24,119.6 L577.6,119.6 L577.6,103.92 L630.24,103.92 L630.24,79.92 L572.8,79.92 L580.8,50 L602.72,50 L597.76,64.24 L630.24,64.24 L630.24,46.96 L652.48,46.96 Z M84.1487254,112.713123 L83.973167,112.733627 L48.1220655,117.981044 C46.8936676,118.160841 45.9097358,119.076532 45.6335058,120.274045 L45.597437,120.455729 L39.6334685,156.203063 C39.5928085,156.446774 39.5824119,156.694575 39.6025148,156.940836 C39.7325053,158.53322 41.0835418,159.733255 42.660552,159.69607 L42.8366547,159.686804 L93.8591372,155.521703 C94.0222125,155.508391 94.1839255,155.48176 94.3426581,155.442077 C95.8926362,155.054582 96.8567153,153.526205 96.5632905,151.976287 L96.5254787,151.804042 L87.3180662,114.974392 C86.9586277,113.536638 85.6078494,112.585708 84.1487254,112.713123 Z M119.547702,76.9734744 L119.372252,76.9912234 L97.0078184,79.9083234 C95.8583794,80.0582502 94.9043197,80.8552674 94.5459834,81.9458218 L94.4918453,82.1302382 L87.7294116,108.213911 C87.6427827,108.548051 87.6144709,108.894635 87.6457227,109.238405 C87.7903699,110.829524 89.1523987,112.017069 90.7289996,111.965364 L90.9050096,111.954477 L122.930693,109.043051 L122.99038,109.037023 C124.578289,108.860588 125.738361,107.475086 125.655141,105.899834 L125.640737,105.724077 L122.74192,79.6347301 L122.73507,79.5780071 C122.528428,77.9937461 121.121084,76.8602701 119.547702,76.9734744 Z M343.36,83.12 L327.52,83.12 L327.52,91.28 L343.36,91.28 L343.36,83.12 Z M380.96,83.12 L365.12,83.12 L365.12,91.28 L376,91.28 C377.386667,91.28 378.56,90.8 379.52,89.84 C380.48,88.88 380.96,87.7066667 380.96,86.32 L380.96,83.12 Z M123.404255,48.2198039 C122.891419,48.2198039 122.468748,48.6058441 122.410983,49.1031828 L122.404255,49.2198039 L122.404255,75.4594479 C122.404255,75.5019384 122.406963,75.5443856 122.412363,75.5865316 C122.477536,76.0952094 122.914161,76.4653943 123.414808,76.4594874 L123.531339,76.4513399 L147.818775,73.3395733 C148.32667,73.2745005 148.696643,72.8390553 148.69175,72.3391299 L148.683858,72.2227571 L146.323998,53.480395 C146.275152,53.0924575 146.005776,52.7724172 145.640337,52.654061 L145.527948,52.6247385 L123.600371,48.2392232 C123.535798,48.2263086 123.470107,48.2198039 123.404255,48.2198039 Z" id="形状结合" fill="url(#linearGradient-1)" fill-rule="nonzero"></path>
    </g>
</svg>